<svg xmlns="http://www.w3.org/2000/svg" xmlns:xlink="http://www.w3.org/1999/xlink" width="500" zoomAndPan="magnify" viewBox="0 0 375 374.999991" height="500" preserveAspectRatio="xMidYMid meet" version="1.0"><path fill="#f0f0f0" d="M 179.046875 8.960938 L 180.605469 10.523438 C 182.136719 17.140625 182.523438 24.035156 182.945312 30.800781 C 183.828125 30.074219 184.703125 29.34375 185.578125 28.609375 L 187.058594 27.375 C 188.582031 26.058594 188.582031 26.058594 189.96875 23.78125 L 191.527344 23.78125 L 192.171875 22.378906 C 193.070312 20.699219 193.988281 19.519531 195.289062 18.140625 L 196.554688 16.78125 L 197.867188 15.398438 L 199.199219 13.972656 C 200.28125 12.820312 201.363281 11.667969 202.453125 10.523438 L 204.011719 12.082031 C 207.34375 24.53125 207.914062 39.214844 205.570312 51.863281 C 208.117188 50.226562 210.5 48.578125 212.789062 46.597656 L 214.933594 44.839844 L 216.496094 44.839844 C 213.992188 53.519531 209.683594 61.230469 204.011719 68.242188 C 218.539062 67.183594 231.75 64.261719 244.078125 56.105469 C 245.292969 55.21875 246.5 54.324219 247.703125 53.421875 L 249.265625 53.421875 C 247.386719 61.652344 243.339844 67.835938 237.753906 74.089844 C 236.660156 75.269531 235.554688 76.441406 234.441406 77.601562 L 233.207031 78.992188 L 232.097656 79.941406 L 229.757812 79.941406 L 229.757812 82.28125 C 243.214844 84.003906 256.542969 83.984375 269.550781 79.941406 L 271.917969 79.210938 C 273.476562 78.703125 275.03125 78.167969 276.570312 77.601562 C 276.289062 79.988281 275.859375 81.402344 274.480469 83.398438 C 269.378906 89.078125 263.886719 93.378906 256.773438 96.273438 C 254.328125 96.988281 252.558594 97.335938 250.042969 97.101562 C 251.253906 98.476562 252.160156 99.351562 253.875 100.039062 L 255.554688 100.46875 L 257.441406 100.957031 L 259.40625 101.441406 L 261.300781 101.933594 C 263.261719 102.429688 265.230469 102.894531 267.207031 103.339844 L 269.199219 103.800781 C 275.316406 105.078125 281.308594 105.105469 287.542969 105.046875 L 290.609375 105.046875 C 296.117188 105.019531 301.53125 104.820312 307 104.121094 C 305.511719 107.246094 303.964844 108.695312 301.15625 110.691406 C 293.582031 115.449219 285.3125 118.121094 276.570312 119.722656 C 275.011719 119.765625 273.449219 119.785156 271.890625 119.722656 L 271.890625 121.28125 C 288.339844 126.960938 305.828125 132.417969 323.382812 129.082031 C 322.660156 131.613281 321.796875 133.007812 319.96875 134.929688 C 313.136719 140.167969 304.394531 141.855469 296.078125 143.121094 L 293.734375 143.121094 L 293.734375 144.679688 C 296.59375 145.472656 299.453125 146.25 302.316406 147.019531 L 304.5625 147.644531 C 318.644531 151.390625 332.652344 152.242188 346.789062 148.582031 C 349.386719 147.636719 351.882812 146.609375 354.390625 145.453125 C 356.152344 144.679688 356.152344 144.679688 357.710938 144.679688 C 356.082031 149.277344 353.40625 152.257812 349.910156 155.601562 C 342.507812 161.761719 334.851562 165.332031 325.320312 167.003906 C 322.617188 167.296875 320.003906 167.40625 317.289062 167.398438 L 314.640625 167.40625 C 312.460938 167.300781 312.460938 167.300781 310.898438 166.519531 C 311.777344 167.695312 311.777344 167.695312 313.242188 168.859375 C 321.132812 171.921875 329.03125 172.765625 337.425781 171.980469 C 348.15625 170.308594 357.378906 165.246094 365.90625 158.671875 C 366.824219 157.917969 367.734375 157.15625 368.636719 156.382812 L 369.414062 157.941406 C 368.484375 159.675781 367.476562 161.367188 366.394531 163.011719 L 365.421875 164.496094 C 360.199219 172.316406 353.675781 179.855469 345.277344 184.316406 C 338.65625 187.378906 332.21875 188.179688 324.945312 187.582031 C 320.457031 186.832031 317.511719 184.410156 314.019531 181.585938 C 312.710938 180.472656 311.414062 179.351562 310.121094 178.222656 C 312.277344 185.628906 314.941406 192 319.035156 198.558594 C 320.261719 200.839844 320.261719 200.839844 320.261719 203.960938 C 317.695312 204.007812 315.125 204.035156 312.558594 204.058594 L 310.386719 204.097656 C 305.433594 204.132812 300.894531 203.5625 296.078125 202.402344 C 296.449219 207.632812 297.332031 212.492188 298.710938 217.558594 C 299.195312 219.5625 299.195312 219.5625 299.195312 221.902344 C 291.417969 221.902344 285.546875 218.597656 278.910156 214.878906 C 277.605469 214.113281 276.304688 213.332031 275.011719 212.539062 C 277.21875 223.097656 283.980469 232.519531 289.835938 241.402344 L 289.054688 242.179688 C 284.0625 242.476562 279.164062 242.144531 274.230469 241.402344 C 277.191406 245.714844 280.160156 249.929688 283.59375 253.878906 C 282.910156 255.390625 282.910156 255.390625 282.03125 257 L 280.472656 257.78125 C 280.902344 261.914062 282.328125 264.984375 284.226562 268.601562 L 285.851562 271.765625 L 286.664062 273.332031 C 288.007812 275.933594 289.308594 278.558594 290.613281 281.179688 C 287.265625 282.949219 284.65625 283.144531 280.878906 283.101562 C 275.21875 282.355469 269.941406 279.816406 264.867188 277.28125 C 265.820312 280.46875 266.78125 283.652344 267.746094 286.835938 L 268.546875 289.527344 C 270.148438 294.792969 271.964844 299.839844 274.199219 304.867188 C 274.984375 306.855469 275.441406 308.714844 275.789062 310.820312 C 273.300781 311.554688 271.054688 311.699219 268.460938 311.703125 L 266.007812 311.707031 L 263.453125 311.699219 L 260.929688 311.707031 L 258.464844 311.703125 L 256.234375 311.699219 C 253.636719 311.585938 251.058594 311.1875 248.484375 310.820312 L 248.484375 329.539062 C 246.144531 329.539062 246.144531 329.539062 244.433594 328.5625 L 242.46875 327.207031 L 240.304688 325.734375 L 238.046875 324.175781 C 236.582031 323.167969 235.113281 322.164062 233.640625 321.160156 L 231.667969 319.800781 C 229.78125 318.632812 227.941406 317.816406 225.859375 317.058594 L 225.75 318.796875 C 224.671875 335.941406 222.25 350.792969 216.496094 366.980469 L 214.933594 366.980469 L 214.792969 365.507812 C 213.28125 350.328125 210.429688 335.375 203.230469 321.738281 L 201.671875 320.960938 L 201.523438 323.203125 C 200.976562 327.253906 198.925781 330.671875 196.988281 334.21875 L 196.210938 334.21875 L 196.25 332.738281 C 196.476562 319.75 194.191406 309.449219 189.300781 297.46875 C 187.964844 294.101562 186.835938 290.671875 185.726562 287.226562 C 184.632812 283.867188 183.496094 280.554688 182.164062 277.28125 L 181.390625 278.640625 C 180.238281 280.660156 179.082031 282.675781 177.925781 284.691406 L 176.703125 286.832031 L 175.539062 288.859375 L 174.460938 290.738281 L 173.582031 292.101562 L 172.804688 292.101562 L 172.972656 289.808594 C 173.960938 275.867188 174.644531 263.617188 168.414062 250.761719 L 167.421875 248.777344 L 166.480469 246.910156 L 165.621094 245.230469 C 165 243.742188 165 243.742188 165 241.402344 L 163.441406 242.179688 C 162.792969 243.574219 162.191406 244.988281 161.636719 246.421875 C 160.335938 249.625 159.019531 252.800781 157.542969 255.929688 L 156.660156 257.8125 C 155.640625 259.339844 155.640625 259.339844 153.960938 260.332031 L 152.519531 260.898438 L 153.03125 258.574219 C 155.019531 248.941406 156.867188 237.800781 154.089844 228.160156 C 153.199219 225.746094 152.15625 223.398438 150.957031 221.121094 L 150.003906 219.296875 C 149.316406 218.0625 148.59375 216.851562 147.835938 215.660156 C 146.542969 217.597656 145.703125 219.242188 144.8125 221.363281 C 143.472656 224.417969 142.078125 227.0625 140.035156 229.699219 L 137.695312 230.480469 L 137.863281 228.441406 C 138.066406 225.8125 138.21875 223.1875 138.359375 220.554688 C 138.472656 218.800781 138.648438 217.058594 138.828125 215.308594 C 139.359375 208.4375 138.542969 203.246094 135.59375 196.960938 C 132.410156 190.460938 132.410156 190.460938 127.929688 184.855469 C 122.484375 181.550781 116.105469 180.058594 109.785156 179.699219 C 104.3125 179.878906 98.160156 180.636719 93.367188 183.375 L 91.660156 184.460938 L 90.101562 184.460938 C 89.566406 185.492188 89.046875 186.535156 88.539062 187.582031 L 87.710938 189.238281 C 86.640625 192.523438 86.453125 195.847656 86.199219 199.28125 C 80.96875 199.160156 76.9375 198.199219 72.34375 195.667969 C 66.792969 192.28125 62.902344 187.777344 59.671875 182.121094 C 59.203125 180.230469 59.042969 178.578125 59 176.640625 C 58.984375 174.90625 58.984375 174.90625 57.722656 172.859375 C 56.023438 169.320312 55.796875 165.742188 55.773438 161.839844 C 55.988281 160.53125 56.25 159.230469 56.550781 157.941406 C 59.464844 160.765625 62.105469 163.734375 64.707031 166.851562 L 65.914062 168.082031 L 67.476562 168.082031 L 69.816406 159.5 L 72.15625 159.5 C 73.6875 161.445312 74.953125 163.503906 76.277344 165.59375 L 77.617188 167.300781 L 79.957031 167.300781 L 84.640625 157.160156 C 88.539062 158.722656 88.539062 158.722656 90.589844 160.378906 L 92.441406 161.839844 L 94.78125 161.839844 L 95.867188 159.648438 L 97.316406 156.820312 L 98.027344 155.375 C 98.746094 153.996094 98.746094 153.996094 100.242188 151.699219 C 101.804688 150.871094 101.804688 150.871094 103.363281 150.921875 C 104.863281 151.699219 104.863281 151.699219 106.289062 152.824219 L 107.742188 153.941406 L 108.828125 154.820312 C 111.558594 153.683594 113.070312 152.238281 114.921875 149.945312 C 116.339844 148.097656 116.339844 148.097656 117.410156 146.242188 C 117.859375 143.800781 117.859375 143.800781 116.628906 141.5625 C 115.265625 139.269531 113.828125 137.21875 111.945312 135.320312 C 109.964844 134.558594 109.964844 134.558594 108.046875 134.542969 C 105.117188 133.503906 103.375 131.503906 101.3125 129.269531 L 100.242188 128.300781 L 98.683594 128.300781 L 93.222656 143.121094 C 89.953125 141.484375 88.3125 139.660156 86.101562 136.882812 C 83.53125 133.664062 83.53125 133.664062 80.738281 130.640625 L 77.617188 143.121094 L 75.277344 143.121094 C 71.570312 140.25 68.738281 136.390625 66.042969 132.59375 L 65.132812 131.421875 L 64.355469 131.421875 C 63.136719 136.867188 62.414062 142.238281 62.015625 147.800781 C 60.273438 147.054688 59.054688 146.417969 57.777344 145.003906 C 57.277344 144.285156 57.277344 144.285156 56.765625 143.558594 L 55.644531 141.984375 L 54.503906 140.34375 C 53.75 139.265625 52.992188 138.191406 52.230469 137.121094 L 51.226562 135.679688 C 50.347656 134.421875 50.347656 134.421875 48.75 133.761719 L 51.089844 153.261719 C 45.839844 148.886719 45.839844 148.886719 44.636719 146.53125 L 43.820312 145.015625 L 42.996094 143.460938 C 40.859375 139.535156 40.859375 139.535156 37.742188 136.425781 C 36.714844 135.992188 35.679688 135.585938 34.632812 135.207031 C 32.144531 134.09375 30.675781 132.195312 28.964844 130.125 C 27.59375 128.171875 26.523438 126.183594 25.441406 124.058594 C 23.796875 120.859375 22.070312 118.621094 19.445312 116.160156 C 15.964844 112.890625 13.582031 109.460938 12.082031 104.902344 C 11.839844 102.816406 11.839844 102.816406 12.082031 101 C 14.511719 99.378906 15.34375 99.207031 18.148438 98.996094 C 30.367188 97.898438 41.5 95.191406 53.214844 91.621094 C 57.046875 90.480469 60.914062 89.484375 64.792969 88.519531 L 66.734375 88.03125 C 69.117188 87.441406 71.253906 86.960938 73.71875 86.960938 L 74.300781 84.132812 C 75.140625 80.894531 76.230469 78.65625 78.398438 76.042969 C 83.371094 71.339844 89.449219 68.113281 95.339844 64.726562 C 98.28125 63.03125 101.140625 61.242188 104 59.417969 C 112.960938 53.910156 121.996094 51.214844 132.441406 50.003906 C 136.492188 49.511719 139.589844 48.835938 143.007812 46.546875 C 144.378906 45.484375 145.726562 44.394531 147.054688 43.28125 L 148.394531 42.1875 C 159.332031 33.195312 168.089844 23.113281 176.511719 11.765625 C 177.484375 10.523438 177.484375 10.523438 179.046875 8.960938 M 2.378906 702.183594 L 5.449219 702.171875 C 8.179688 702.378906 8.179688 702.378906 10.054688 703.074219 C 11.300781 703.9375 11.300781 703.9375 12.082031 705.496094 C 12.265625 708.078125 12.226562 710.664062 12.226562 713.25 L 12.257812 715.421875 L 12.261719 717.511719 L 12.269531 719.425781 C 12.082031 721.097656 12.082031 721.097656 10.519531 723.4375 C 8.878906 723.699219 8.878906 723.699219 6.910156 723.730469 C 3.933594 723.902344 3.933594 723.902344 1.28125 725.128906 L -0.0625 726.21875 C -1.71875 727.417969 -3.042969 728.0625 -5.085938 728.300781 C -8.992188 728.464844 -12.882812 728.316406 -16.789062 728.117188 L -17.566406 726.558594 L -17.175781 724.511719 C -16.832031 722.195312 -16.875 720.980469 -17.273438 718.757812 C -17.625 716.339844 -17.53125 715.535156 -16.691406 713.101562 C -15.113281 710.792969 -13.566406 709.492188 -11.324219 707.839844 L -9.375 705.789062 C -5.765625 702.359375 -2.503906 702.164062 2.378906 702.183594 M -5.863281 705.496094 L -5.863281 707.058594 L -4.582031 707.605469 C -2.859375 708.386719 -1.226562 709.171875 0.378906 710.179688 L 1.5 712.324219 L 2.71875 714.078125 C 5.144531 714.429688 7.269531 714.257812 9.738281 714.078125 L 9.738281 705.496094 Z M -11.519531 710.566406 C -13.519531 712.382812 -14.097656 712.972656 -14.886719 715.394531 C -15.410156 718.105469 -15.011719 720.050781 -14.152344 722.65625 C -13.75 723.707031 -13.328125 724.746094 -12.886719 725.777344 C -7.71875 726.09375 -7.71875 726.09375 -2.792969 724.804688 C -1.070312 723.34375 0.101562 722.324219 1.15625 720.316406 C 1.390625 717.703125 1.390625 715.617188 0.621094 713.101562 C -0.804688 711.199219 -2.140625 710.382812 -4.304688 709.398438 C -7.296875 708.953125 -8.761719 709.296875 -11.519531 710.566406 M 5.839844 715.636719 C 4.605469 716.613281 4.605469 716.613281 3.5 717.976562 L 3.5 721.097656 L 9.738281 721.097656 L 9.738281 717.199219 Z M 5.839844 715.636719 " fill-opacity="1" fill-rule="nonzero"/><path fill="#1fb2f3" d="M 115.847656 82.28125 L 116.628906 84.621094 C 115.386719 86.367188 114.054688 88.042969 112.628906 89.644531 L 111.476562 90.996094 C 106.136719 97.167969 106.136719 97.167969 102.242188 98.5625 C 99.707031 98.6875 97.945312 97.957031 95.5625 97.101562 C 93.746094 96.808594 91.925781 96.539062 90.101562 96.320312 L 91.464844 94.371094 C 92.761719 92.46875 93.6875 90.589844 94.585938 88.472656 C 95.726562 86.234375 96.863281 84.589844 98.832031 83.011719 C 103.820312 80.148438 110.386719 81.652344 115.847656 82.28125 " fill-opacity="1" fill-rule="nonzero"/><path fill="#1fb2f3" d="M 109.410156 81.792969 L 111.285156 81.929688 C 112.808594 82.039062 114.328125 82.160156 115.847656 82.28125 L 116.628906 84.621094 C 115.53125 86.386719 114.132812 87.757812 112.726562 89.300781 L 111.945312 87.742188 C 112.675781 86.15625 113.457031 84.59375 114.289062 83.0625 C 106.78125 82.839844 106.78125 82.839844 99.757812 84.933594 C 98.128906 86.3125 98.128906 86.3125 96.34375 88.519531 L 95.5625 86.960938 C 100.3125 81.949219 102.738281 81.242188 109.410156 81.792969 " fill-opacity="1" fill-rule="nonzero"/><path fill="#1fb2f3" d="M 101.804688 83.0625 L 103.363281 83.839844 L 97.902344 87.742188 C 98.539062 86.277344 98.539062 86.277344 99.464844 84.621094 Z M 96.34375 87.742188 L 97.902344 88.519531 L 96.441406 90.226562 C 94.910156 92.253906 94.039062 93.941406 93.222656 96.320312 L 90.101562 95.542969 Z M 96.34375 87.742188 " fill-opacity="1" fill-rule="nonzero"/><path fill="#f0f0f0" d="M 129.113281 704.71875 L 133.011719 705.496094 L 132.234375 707.839844 L 129.113281 707.058594 Z M 214.933594 360.738281 L 217.273438 362.300781 L 216.496094 366.980469 L 214.933594 366.980469 Z M 399.84375 746.835938 L 402.964844 747.617188 C 401.890625 749.179688 401.890625 749.179688 400.625 750.738281 L 399.0625 750.738281 Z M 394.382812 749.957031 L 396.722656 751.519531 L 395.941406 754.636719 L 394.382812 753.859375 Z M 143.15625 722.65625 L 145.496094 723.4375 L 143.9375 725.777344 L 141.59375 725.777344 Z M 134.574219 746.835938 L 137.695312 748.398438 L 137.695312 749.957031 L 133.792969 748.398438 Z M 134.574219 746.835938 " fill-opacity="1" fill-rule="nonzero"/><path fill="#1fb2f3" d="M 93.222656 93.203125 L 94.003906 95.542969 L 90.101562 96.320312 Z M 93.222656 93.203125 " fill-opacity="1" fill-rule="nonzero"/></svg>